<svg width="24" height="24" viewBox="0 0 24 24" fill="none" xmlns="http://www.w3.org/2000/svg">
<path d="M6.75 16.6854V7.2002C6.75 6.62777 6.75058 6.24344 6.77476 5.94745C6.79822 5.66016 6.84012 5.52281 6.88624 5.43229C7.00608 5.19709 7.19709 5.00608 7.43229 4.88624C7.52281 4.84012 7.66016 4.79822 7.94745 4.77476C8.24344 4.75058 8.62777 4.75 9.2002 4.75H14.8002C15.3726 4.75 15.7566 4.75058 16.0523 4.77475C16.3391 4.7982 16.4763 4.84006 16.5669 4.88624C16.8029 5.0065 16.9945 5.1979 17.114 5.43229C17.16 5.52263 17.2018 5.65973 17.2253 5.9465C17.2494 6.24198 17.25 6.62558 17.25 7.19691V16.6854C17.25 17.3762 17.2496 17.8576 17.2261 18.2198C17.2021 18.5887 17.1576 18.7415 17.1224 18.8132C16.8861 19.2955 16.368 19.5727 15.8353 19.5018C15.7559 19.4912 15.6038 19.4434 15.2835 19.2589C14.9691 19.0777 14.5681 18.811 13.9933 18.4279C13.9702 18.4125 13.9474 18.3972 13.9249 18.3822C13.5414 18.1262 13.2415 17.926 12.916 17.8109C12.323 17.6013 11.676 17.6013 11.083 17.8109C10.7579 17.9259 10.4589 18.1255 10.077 18.3804C10.0545 18.3954 10.0318 18.4106 10.0088 18.4259L10.0061 18.4277C9.43119 18.811 9.03039 19.0777 8.71596 19.259C8.39574 19.4437 8.24392 19.4914 8.16476 19.5019C7.63211 19.5728 7.11399 19.2955 6.87757 18.8132C6.84242 18.7415 6.79792 18.5887 6.77393 18.2199C6.75038 17.8577 6.75 17.3763 6.75 16.6854Z" fill="#212124" stroke="#212124" stroke-width="1.5" stroke-linecap="round" stroke-linejoin="round"/>
</svg>
