<svg width="24" height="24" viewBox="0 0 24 24" fill="none" xmlns="http://www.w3.org/2000/svg">
<path d="M7.20941 17.4379L7.19763 17.4471L5.84299 18.528L6.31076 19.1142L5.84299 18.528C5.46147 18.8324 5.21538 19.0278 5.02673 19.1522C4.93757 19.211 4.88545 19.2368 4.86176 19.2474C4.83859 19.2429 4.81709 19.2326 4.79921 19.2177C4.79271 19.1924 4.78067 19.1361 4.77118 19.0319C4.75075 18.8076 4.75 18.4942 4.75 18.0068V7.83714C4.75 7.32823 4.75059 6.99165 4.77172 6.7336C4.79213 6.48431 4.8279 6.37522 4.86166 6.30914C4.95992 6.11679 5.11672 5.96023 5.31027 5.86187C5.37719 5.82786 5.48731 5.79208 5.73769 5.77168C5.99671 5.75058 6.33446 5.75 6.84462 5.75H17.1557C17.6659 5.75 18.0033 5.75058 18.2621 5.77168C18.512 5.79206 18.622 5.8278 18.689 5.86187C18.8834 5.96065 19.0407 6.1176 19.1385 6.30914C19.1722 6.37506 19.2079 6.48394 19.2283 6.73276C19.2494 6.99036 19.25 7.32628 19.25 7.83423V14.5779C19.25 15.0859 19.2494 15.4216 19.2283 15.679C19.2079 15.9275 19.1723 16.0363 19.1385 16.1023C19.0402 16.2948 18.883 16.4518 18.6896 16.5501C18.6228 16.584 18.5129 16.6197 18.2631 16.6401C18.0045 16.6612 17.6675 16.6617 17.1583 16.6617H9.44184C9.42235 16.6617 9.40309 16.6617 9.38403 16.6617C9.07063 16.6615 8.81361 16.6614 8.56054 16.7132C8.33843 16.7586 8.12229 16.8337 7.91877 16.9374C7.69034 17.0538 7.49104 17.213 7.25185 17.4041C7.23915 17.4143 7.22633 17.4245 7.2134 17.4349L7.20941 17.4379Z" stroke="#212124" stroke-width="1.5" stroke-linecap="round" stroke-linejoin="round"/>
</svg>
