<svg width="24" height="24" viewBox="0 0 24 24" fill="none" xmlns="http://www.w3.org/2000/svg">
<path d="M2 17L6.76498 12.235C7.39102 11.609 7.74398 11.7855 8.88275 11.8821C9.962 11.9736 10.4711 11.5291 11.3535 10.6467C12.0594 9.94077 14.8831 6.88177 16.2067 5.44051L17.8833 3.58747C18.5093 2.96142 19.2951 3.23451 19.7363 3.67571" stroke="black" stroke-width="1.4" stroke-linecap="round"/>
<path d="M6.58887 21.5884L11.3538 16.8234C11.9799 16.1974 11.8034 15.8444 11.7068 14.7056C11.6153 13.6264 12.0598 13.1173 12.9422 12.2349C13.6481 11.529 16.7071 8.70529 18.1484 7.38168L20.0014 5.70512C20.6274 5.07908 20.3544 4.29327 19.9132 3.85207" stroke="black" stroke-width="1.4" stroke-linecap="round"/>
<path d="M5 19.9999L8.00017 16.9998" stroke="black" stroke-width="1.4" stroke-linecap="round"/>
<path d="M3.59668 18.5798L6.59685 15.5796" stroke="black" stroke-width="1.4" stroke-linecap="round"/>
</svg>
