<svg width="24" height="24" viewBox="0 0 24 24" fill="none" xmlns="http://www.w3.org/2000/svg">
<path d="M19 12H17.4445M17.4445 12C17.4445 13.4441 16.8712 14.8286 15.8501 15.8498C14.829 16.8709 13.4441 17.4445 12 17.4445M17.4445 12C17.4445 10.5559 16.8712 9.17063 15.8501 8.14951C14.829 7.12839 13.4441 6.55547 12 6.55547M12 5V6.55547M12 6.55547C10.556 6.55547 9.17119 7.12835 8.15014 8.1494C7.12909 9.17045 6.55547 10.5553 6.55547 11.9993C6.55547 13.4432 7.12909 14.8281 8.15014 15.8491C9.17119 16.8702 10.556 17.4445 12 17.4445M5 12H6.55547M12 19V17.4445" stroke="black" stroke-miterlimit="10" stroke-linecap="round"/>
<path d="M11.9996 15.1109C12.8247 15.1109 13.616 14.7832 14.1994 14.1998C14.7828 13.6163 15.1106 12.8251 15.1106 12C15.1106 11.1749 14.7828 10.3836 14.1994 9.80021C13.616 9.2168 12.8247 8.88904 11.9996 8.88904C11.1745 8.88904 10.3833 9.2168 9.79985 9.80021C9.21643 10.3836 8.88867 11.1749 8.88867 12C8.88867 12.8251 9.21643 13.6163 9.79985 14.1998C10.3833 14.7832 11.1745 15.1109 11.9996 15.1109Z" stroke="black" stroke-miterlimit="10" stroke-linecap="round"/>
</svg>
