<svg width="18" height="18" viewBox="0 0 18 18" fill="none" xmlns="http://www.w3.org/2000/svg">
<path d="M9 6.75003V9.75002M3.02189 11.3999C2.30851 12.5813 1.95193 13.1722 2.00521 13.6569C2.05169 14.0797 2.28376 14.4637 2.64347 14.7136C3.05572 15 3.76865 15 5.19443 15H12.8056C14.2313 15 14.9442 15 15.3564 14.7136C15.7161 14.4637 15.9483 14.0797 15.9948 13.6569C16.0481 13.1722 15.6916 12.5813 14.9782 11.3999L11.174 5.09989C10.4606 3.91851 10.1038 3.32792 9.6381 3.12968C9.23192 2.95677 8.76782 2.95677 8.36164 3.12968C7.89615 3.32783 7.53953 3.91843 6.82674 5.09883L3.02189 11.3999ZM9.03983 12V12.075L8.96093 12.0752V12H9.03983Z" stroke="#212124" stroke-linecap="round" stroke-linejoin="round"/>
</svg>
