<svg width="60" height="70" viewBox="0 0 60 70" fill="none" xmlns="http://www.w3.org/2000/svg">
<path id="Subtract" d="M20.9006 48.9477C22.158 48.9477 23.1754 47.9362 23.1754 46.6862L23.1754 30.8557H27.725L27.725 46.6862C27.725 47.9362 28.7425 48.9477 29.9999 48.9477C31.2572 48.9477 32.2747 47.9362 32.2747 46.6862L32.2747 30.8557H36.8243V46.6862C36.8243 47.9362 37.8418 48.9477 39.0991 48.9477C40.3565 48.9477 41.3739 47.9362 41.3739 46.6862L41.3739 28.5942C41.3739 23.5002 37.9672 19.183 33.2999 17.7737V0.00434447C48.2206 1.61909 60 13.9713 60 29.0104C60 37.1434 57.0247 44.694 52.1277 51.0937C46.7252 58.1531 40.0664 64.3038 32.5713 69.1317C30.8559 70.2474 29.3078 70.3316 27.4251 69.1317C19.8873 64.3038 13.2285 58.1531 7.87235 51.0937C2.97171 44.694 0 37.1434 0 29.0104C0 13.9587 11.799 1.59854 26.6999 0.000335693V17.7737C22.0325 19.1829 18.6258 23.5002 18.6258 28.5942V46.6862C18.6258 47.9362 19.6432 48.9477 20.9006 48.9477Z" fill="#EF3E2E"/>
</svg>
